<svg xmlns="http://www.w3.org/2000/svg" width="267" height="49" viewBox="0 0 267 49">
  <defs>
    <linearGradient id="logo-a" x1="50%" x2="50%" y1="0%" y2="100%">
      <stop offset="0%" stop-color="#5BDAD5"/>
      <stop offset="100%" stop-color="#0947A0" stop-opacity=".597"/>
    </linearGradient>
  </defs>
  <g fill="none" transform="translate(1 1)">
    <path fill="#222" stroke="#222" d="M61.03,24.244 L61.03,23.817 L62.096,23.391 C65.473,22.004 68.032,20.423 69.773,18.646 C69.809,18.184 69.835,17.748 69.853,17.339 C69.871,16.931 69.88,16.531 69.88,16.139 C69.88,15.713 69.915,15.074 69.987,14.221 C70.057,13.368 70.164,12.524 70.307,11.688 C70.4276497,10.9328788 70.6239718,10.191813 70.893,9.476 C71.142,8.836 71.426,8.516 71.746,8.516 C72.136,8.516 72.466,8.898 72.732,9.662 C72.999,10.427 73.132,11.377 73.132,12.515 C73.132,14.683 72.155,16.762 70.2,18.752 C70.1257208,20.0341602 70.01902,21.3142363 69.88,22.591 L69.987,22.484 C71.2369616,23.2176811 72.570067,23.7994669 73.958,24.217 C75.327,24.626 76.722,24.83 78.143,24.83 C79.956,24.83 81.715,24.492 83.421,23.817 L84.488,23.391 L84.488,23.817 L83.421,24.244 C81.7598697,24.9105958 79.9868875,25.2543995 78.197,25.257 C76.917,25.257 75.647,25.087 74.385,24.75 C73.0681029,24.3912698 71.7909202,23.9000973 70.573,23.284 C71.283,24.564 71.79,25.976 72.093,27.522 C72.3941463,29.058744 72.5458535,30.6210271 72.546,32.187 C72.546,33.893 72.315,35.199 71.852,36.106 C71.39,37.012 70.892,37.466 70.36,37.466 C69.862,37.466 69.427,37.101 69.054,36.372 C68.68,35.644 68.494,34.48 68.494,32.88 C68.494,32.276 68.547,31.45 68.654,30.401 C68.76,29.353 68.884,28.189 69.027,26.909 C69.169,25.665 69.311,24.377 69.453,23.044 C69.5913065,21.7584821 69.6980053,20.4697598 69.773,19.179 C68.849,20.032 67.756,20.849 66.494,21.631 C65.233,22.413 63.767,23.141 62.096,23.817 L61.03,24.244 L61.03,24.244 Z M72.119,32.187 C72.119,30.587 71.95,28.971 71.613,27.336 C71.275,25.701 70.697,24.244 69.88,22.964 L69.453,26.909 C69.311,28.153 69.187,29.309 69.08,30.375 C68.974,31.441 68.92,32.276 68.92,32.88 C68.92,34.302 69.062,35.35 69.347,36.026 C69.631,36.701 69.969,37.039 70.36,37.039 C70.786,37.039 71.186,36.621 71.56,35.786 C71.932,34.951 72.119,33.751 72.119,32.187 Z M70.306,16.14 C70.306,16.46 70.298,16.78 70.28,17.1 C70.262,17.42 70.253,17.775 70.253,18.166 C71.888,16.318 72.705,14.434 72.705,12.515 C72.705,11.484 72.617,10.631 72.439,9.955 C72.261,9.28 72.03,8.943 71.746,8.943 C71.497,8.943 71.284,9.245 71.106,9.849 C70.9093976,10.5404106 70.7580768,11.2439022 70.653,11.955 C70.529,12.755 70.44,13.555 70.386,14.354 C70.333,15.154 70.306,15.749 70.306,16.14 Z M84.488,23.39 C84.878,23.248 85.341,23.053 85.874,22.804 C86.4217389,22.5475538 86.9557914,22.2628371 87.474,21.951 C88.006,21.631 88.504,21.302 88.966,20.965 C89.428,20.627 89.766,20.263 89.979,19.872 L90.299,20.032 C90.228,20.316 90.157,20.618 90.086,20.938 C90.0109977,21.2448931 89.9575341,21.5566525 89.926,21.871 C89.8917838,22.180849 89.8737593,22.4922724 89.872,22.804 C89.872,23.195 89.917,23.515 90.006,23.764 C90.095,24.013 90.263,24.137 90.512,24.137 C90.903,24.137 91.356,23.968 91.872,23.63 C92.4114746,23.2734062 92.9199403,22.871986 93.392,22.43 C93.889,21.969 94.333,21.48 94.724,20.965 C95.114,20.449 95.381,20.032 95.524,19.712 L95.95,19.819 C95.807192,20.358008 95.7355832,20.9133964 95.737,21.471 C95.737,22.751 96.199,23.631 97.123,24.111 C98.047,24.591 99.131,24.83 100.375,24.83 C101.333188,24.830189 102.288865,24.7320077 103.227,24.537 C104.169,24.341 104.96,24.101 105.6,23.817 L106.666,23.391 L106.666,23.817 L105.6,24.244 C104.996,24.492 104.223,24.724 103.28,24.937 C102.339,25.15 101.37,25.2570001 100.375,25.2570001 C99.7397154,25.2570963 99.1059739,25.194459 98.483,25.07 C97.9085537,24.9639551 97.3576055,24.756376 96.856,24.457 C96.3889536,24.1676512 96.0034608,23.7639164 95.736,23.284 C95.453,22.786 95.31,22.182 95.31,21.471 L95.31,20.991 C95.026,21.382 94.688,21.791 94.297,22.218 C93.9147563,22.6366512 93.4957455,23.0201867 93.045,23.364 C92.6256987,23.6856753 92.1797526,23.9710406 91.712,24.217 C91.267,24.448 90.868,24.563 90.512,24.563 C90.122,24.563 89.846,24.395 89.686,24.057 C89.526,23.719 89.446,23.302 89.446,22.804 L89.446,22.271 C89.446,22.058 89.464,21.862 89.499,21.685 C89.535,21.471 89.57,21.24 89.606,20.991 C89.2630146,21.3655475 88.8679757,21.6888531 88.433,21.951 C87.971,22.235 87.5,22.493 87.02,22.724 C86.54,22.955 86.078,23.16 85.634,23.337 C85.19,23.515 84.808,23.675 84.488,23.817 L83.421,24.244 L83.421,23.817 L84.488,23.391 L84.488,23.39 Z M105.6,24.244 L105.6,23.817 L106.666,23.391 C107.377,23.106 108.168,22.706 109.039,22.191 C109.909,21.676 110.807,21.161 111.731,20.645 C112.622857,20.1457325 113.539357,19.6918211 114.477,19.285 C115.383,18.895 116.209,18.699 116.956,18.699 C117.773,18.699 118.182,19.108 118.182,19.925 C118.182,20.352 118.04,20.84 117.755,21.391 C117.486191,21.9167276 117.183555,22.4244607 116.849,22.911 C117.311,22.981 117.649,23.275 117.862,23.791 C118.075,24.306 118.182,24.954 118.182,25.736 C118.182,26.127 118.155,26.536 118.102,26.963 C118.043701,27.4255354 117.981366,27.887553 117.915,28.349 C119.193338,27.4534838 120.529225,26.643066 121.914,25.923 C123.42022,25.1364994 124.968559,24.4334376 126.552,23.817 L127.618,23.391 L127.618,23.817 L126.552,24.244 C124.935478,24.8941255 123.3519,25.6233392 121.807,26.429 C120.403864,27.1566783 119.050259,27.976124 117.755,28.882 C117.542,29.842 117.275,30.792 116.955,31.734 C116.664829,32.6082829 116.299463,33.4557846 115.863,34.267 C115.454,35.013 115.019,35.617 114.557,36.079 C114.094,36.541 113.632,36.772 113.17,36.772 C112.388,36.772 111.997,36.382 111.997,35.599 C111.997,34.569 112.477,33.458 113.437,32.267 C114.397,31.077 115.712,29.895 117.382,28.722 C117.524,28.153 117.622,27.612 117.675,27.096 C117.729,26.58 117.755,26.11 117.755,25.683 C117.755,24.973 117.666,24.403 117.489,23.977 C117.311,23.551 117.027,23.337 116.636,23.337 L116.529,23.337 C116.139,23.835 115.836,24.084 115.623,24.084 C115.41,24.084 115.303,23.959 115.303,23.71 C115.303,23.568 115.383,23.408 115.543,23.23 C115.703,23.053 115.996,22.946 116.423,22.91 C116.707,22.52 117,22.04 117.303,21.471 C117.604,20.903 117.755,20.387 117.755,19.925 C117.755,19.392 117.471,19.125 116.902,19.125 C116.227,19.125 115.454,19.312 114.583,19.685 C113.65607,20.0860271 112.748714,20.5308618 111.864,21.018 C110.938671,21.5240996 110.023491,22.0485364 109.119,22.591 C108.23,23.124 107.413,23.533 106.666,23.817 L105.6,24.244 L105.6,24.244 Z M113.17,36.346 C113.561,36.346 113.961,36.141 114.37,35.733 C114.779,35.323 115.16,34.782 115.516,34.107 C115.872,33.431 116.2,32.667 116.502,31.814 C116.805,30.961 117.062,30.108 117.276,29.255 C115.783,30.392 114.601,31.503 113.73,32.587 C112.86,33.671 112.424,34.675 112.424,35.599 C112.424,36.097 112.673,36.346 113.17,36.346 Z M115.623,23.657 C115.693,23.657 115.801,23.587 115.943,23.444 C115.842673,23.4756332 115.751205,23.5304456 115.676,23.604 L115.623,23.657 Z M126.553,24.244 L126.553,23.817 L127.618,23.391 C128.329,23.106 129.12,22.706 129.991,22.191 C130.861,21.676 131.759,21.161 132.683,20.645 C133.574857,20.1457325 134.491357,19.6918211 135.429,19.285 C136.335,18.895 137.161,18.699 137.908,18.699 C138.725,18.699 139.134,19.108 139.134,19.925 C139.134,20.352 138.992,20.84 138.708,21.391 C138.438484,21.9165418 138.135528,22.4242512 137.801,22.911 C138.263,22.981 138.601,23.275 138.814,23.791 C139.027,24.306 139.134,24.954 139.134,25.736 C139.134,26.127 139.107,26.536 139.054,26.963 C138.995701,27.4255354 138.933366,27.887553 138.867,28.349 C140.145338,27.4534838 141.481225,26.643066 142.866,25.923 C144.37222,25.1364994 145.920559,24.4334376 147.504,23.817 L148.571,23.391 L148.571,23.817 L147.504,24.244 C145.887478,24.8941255 144.3039,25.6233392 142.759,26.429 C141.356206,27.1567167 140.002936,27.9761618 138.708,28.882 C138.494,29.842 138.228,30.792 137.908,31.734 C137.617507,32.6083159 137.251806,33.4558185 136.815,34.267 C136.406,35.013 135.971,35.617 135.509,36.079 C135.047,36.541 134.585,36.772 134.123,36.772 C133.341,36.772 132.95,36.382 132.95,35.599 C132.95,34.569 133.43,33.458 134.39,32.267 C135.349,31.077 136.664,29.895 138.334,28.722 C138.476,28.153 138.574,27.612 138.628,27.096 C138.681,26.58 138.708,26.11 138.708,25.683 C138.708,24.973 138.618,24.403 138.441,23.977 C138.263,23.551 137.979,23.337 137.588,23.337 L137.481,23.337 C137.091,23.835 136.788,24.084 136.575,24.084 C136.362,24.084 136.255,23.959 136.255,23.71 C136.255,23.568 136.335,23.408 136.495,23.23 C136.655,23.053 136.948,22.946 137.375,22.91 C137.659,22.52 137.952,22.04 138.255,21.471 C138.556,20.903 138.708,20.387 138.708,19.925 C138.708,19.392 138.423,19.125 137.855,19.125 C137.179,19.125 136.406,19.312 135.535,19.685 C134.60807,20.0860271 133.700714,20.5308618 132.816,21.018 C131.890671,21.5240996 130.975491,22.0485364 130.071,22.591 C129.182,23.124 128.365,23.533 127.618,23.817 L126.552,24.244 L126.553,24.244 Z M134.123,36.346 C134.513,36.346 134.913,36.141 135.323,35.733 C135.731,35.323 136.113,34.782 136.468,34.107 C136.824,33.431 137.153,32.667 137.455,31.814 C137.757,30.961 138.015,30.108 138.228,29.255 C136.735,30.392 135.553,31.503 134.682,32.587 C133.812,33.671 133.376,34.675 133.376,35.599 C133.376,36.097 133.625,36.346 134.123,36.346 Z M136.575,23.657 C136.646,23.657 136.753,23.587 136.895,23.444 C136.794673,23.4756332 136.703205,23.5304456 136.628,23.604 L136.575,23.657 Z M158.007,23.444 C158.505,23.444 159.047,23.284 159.633,22.964 C160.212717,22.6486236 160.757707,22.273231 161.259,21.844 C161.256619,21.5561761 161.292602,21.2693183 161.366,20.991 C161.436,20.458 161.535,20.085 161.659,19.871 C161.783,19.659 161.917,19.552 162.059,19.552 C162.308,19.552 162.432,19.747 162.432,20.138 C162.432,20.352 162.352,20.6 162.192,20.885 C162.032,21.169 161.828,21.454 161.579,21.738 C161.392925,22.7326327 161.276973,23.7391115 161.232,24.75 C161.179367,25.8065189 161.152692,26.8641711 161.152,27.922 C161.974822,27.2980563 162.893422,26.8117386 163.872,26.482 C164.832,26.162 165.826,25.887 166.857,25.656 C167.887,25.426 168.981,25.186 170.136,24.936 C171.380967,24.6600033 172.602119,24.2858334 173.788,23.817 L174.854,23.391 L174.854,23.817 L173.788,24.244 C172.366,24.812 171.068,25.23 169.896,25.496 C168.813554,25.742964 167.729531,25.9829689 166.644,26.216 C165.685109,26.4189231 164.740973,26.6861946 163.818,27.016 C162.93,27.336 162.041,27.833 161.152,28.509 C161.152,30.144 161.126,31.645 161.072,33.014 C161.019,34.382 160.815,35.634 160.459,36.772 C160.033,38.052 159.571,38.692 159.073,38.692 C158.683,38.692 158.353,38.398 158.087,37.812 C157.82,37.225 157.687,36.47 157.687,35.546 C157.687,33.769 157.963,32.312 158.513,31.174 C159.039175,30.0688818 159.793382,29.0876977 160.726,28.295 C160.763437,27.2635722 160.816777,26.232783 160.886,25.203 C160.94995,24.2038833 161.056714,23.2079685 161.206,22.218 C160.740694,22.6824827 160.210923,23.0775373 159.633,23.391 C159.047,23.711 158.505,23.871 158.007,23.871 C157.509,23.871 157.172,23.719 156.994,23.417 C156.807924,23.0961383 156.656089,22.7566062 156.541,22.404 C156.426757,22.0551688 156.28394,21.7163537 156.114,21.391 C155.954,21.089 155.644,20.938 155.181,20.938 C154.613,20.938 154.053,21.045 153.502,21.258 C152.952,21.471 152.392,21.738 151.822,22.058 C151.254,22.378 150.703,22.698 150.17,23.018 C149.65887,23.3269375 149.123828,23.5944588 148.57,23.818 L147.504,24.244 L147.504,23.817 L148.571,23.391 C149.068,23.177 149.583,22.911 150.117,22.591 C150.65,22.271 151.192,21.951 151.743,21.631 C152.293,21.311 152.853,21.045 153.422,20.831 C153.98449,20.6187841 154.58081,20.5103623 155.182,20.511 C155.75,20.511 156.141,20.663 156.354,20.965 C156.568,21.267 156.727,21.605 156.834,21.978 C156.941,22.351 157.065,22.688 157.207,22.991 C157.349,23.293 157.616,23.444 158.007,23.444 L158.007,23.444 Z M160.033,36.666 C160.353,35.528 160.548,34.293 160.619,32.96 C160.69,31.627 160.726,30.25 160.726,28.829 C159.8993,29.5879338 159.244634,30.5150369 158.806,31.548 C158.345,32.614 158.114,33.947 158.114,35.546 C158.114,36.364 158.202,37.021 158.38,37.519 C158.558,38.016 158.789,38.265 159.073,38.265 C159.393,38.265 159.713,37.732 160.033,36.665 L160.033,36.666 Z M189.035,23.924 C189.071,23.746 189.089,23.586 189.089,23.444 L189.089,23.017 C189.089,22.307 188.955,21.737 188.689,21.311 C188.422,20.885 188.094,20.671 187.703,20.671 C187.027,20.671 186.254,20.929 185.383,21.445 C184.513,21.96 183.846,22.697 183.384,23.657 L183.384,23.977 C182.994,23.977 182.798,23.888 182.798,23.71 C182.795132,23.6184502 182.813261,23.5274589 182.851,23.444 C182.851,22.84 182.771,22.271 182.611,21.738 C182.451,21.205 182.069,20.938 181.465,20.938 C180.896,20.938 180.336,21.045 179.785,21.258 C179.235,21.471 178.675,21.738 178.106,22.058 C177.537,22.378 176.986,22.698 176.453,23.018 C175.942192,23.3268899 175.407485,23.5944103 174.854,23.818 L173.788,24.244 L173.788,23.817 L174.854,23.391 C175.386706,23.1593369 175.903208,22.8920657 176.4,22.591 C176.933,22.271 177.475,21.951 178.026,21.631 C178.562688,21.3179074 179.124651,21.0503057 179.706,20.831 C180.268175,20.618903 180.864146,20.5104832 181.465,20.511 C182.175,20.511 182.647,20.761 182.878,21.258 C183.108,21.756 183.242,22.307 183.278,22.911 C183.801716,22.102315 184.515506,21.4341887 185.357,20.965 C186.21,20.485 186.992,20.245 187.703,20.245 C188.307,20.245 188.769,20.529 189.089,21.098 C189.409,21.667 189.569,22.413 189.569,23.338 C189.817,22.982 190.129,22.618 190.502,22.244 C190.875,21.871 191.257,21.534 191.648,21.231 C192.038,20.929 192.438,20.681 192.848,20.485 C193.256,20.29 193.62,20.192 193.94,20.192 C194.331,20.192 194.633,20.281 194.847,20.458 C195.06,20.636 195.22,20.876 195.327,21.178 C195.433,21.48 195.531,21.808 195.62,22.164 C195.708,22.52 195.824,22.875 195.966,23.231 C196.215,23.835 196.668,24.244 197.326,24.457 C197.983,24.67 198.721,24.777 199.538,24.777 C200.462,24.777 201.395,24.67 202.338,24.457 C203.279,24.244 204.034,24.03 204.603,23.817 L205.669,23.391 L205.669,23.817 L204.603,24.244 C204.034,24.492 203.279,24.714 202.337,24.91 C201.416444,25.1029338 200.478554,25.2011124 199.538,25.203 C198.65,25.203 197.841,25.079 197.112,24.83 C196.384,24.581 195.877,24.137 195.593,23.497 C195.472106,23.2420594 195.382457,22.9734464 195.326,22.697 C195.254113,22.3725859 195.165325,22.0521492 195.06,21.737 C194.968791,21.4463468 194.823962,21.1753433 194.633,20.938 C194.464584,20.7290459 194.208277,20.610693 193.94,20.618 C193.62,20.618 193.256,20.734 192.847,20.965 C192.41411,21.2128312 192.003862,21.4982648 191.621,21.818 C191.212,22.155 190.831,22.52 190.475,22.911 C190.119,23.301 189.835,23.657 189.622,23.977 L189.569,24.457 C189.178,24.457 188.982,24.368 188.982,24.19 C188.979132,24.0984502 188.997261,24.0074589 189.035,23.924 L189.035,23.924 Z M208.122,22.324 C207.802,22.609 207.384,22.902 206.869,23.204 C206.353,23.506 205.954,23.71 205.669,23.817 L204.603,24.244 L204.603,23.817 L205.669,23.391 C205.776,23.355 205.945,23.275 206.176,23.151 C206.406,23.026 206.646,22.884 206.896,22.724 C207.144,22.564 207.393,22.395 207.642,22.218 C207.891,22.04 208.086,21.862 208.228,21.685 C208.614549,21.2269948 209.052797,20.8152565 209.534,20.458 C210.098629,20.0345448 210.808265,19.8525499 211.507,19.952 C211.909599,20.0035494 212.274604,20.2146973 212.52,20.538 C212.68,20.734 212.813,21.009 212.92,21.365 C213.066877,21.9413777 213.382321,22.4608519 213.826,22.857 C214.311388,23.2983947 214.871004,23.6504818 215.479,23.897 C216.119,24.164 216.821,24.368 217.585,24.51 C218.367454,24.6536504 219.161472,24.7249514 219.957,24.723 C221.805,24.723 223.494,24.421 225.022,23.817 L226.088,23.391 L226.088,23.817 L225.022,24.244 C223.529,24.848 221.805,25.15 219.851,25.15 C219.069,25.15 218.304,25.088 217.558,24.963 C216.847265,24.8483068 216.150247,24.6606482 215.478,24.403 C214.87144,24.1730565 214.304843,23.849094 213.799,23.443 C213.324338,23.0583591 212.949697,22.5646702 212.707,22.004 C212.6,22.324 212.413,22.644 212.147,22.964 C211.88,23.284 211.587,23.568 211.267,23.817 C210.947,24.066 210.61,24.261 210.254,24.404 C209.933007,24.5389537 209.589161,24.6112532 209.241,24.617 C208.886,24.617 208.593,24.501 208.361,24.27 C208.131,24.04 208.015,23.675 208.015,23.177 C208.015,23.035 208.024,22.902 208.042,22.777 C208.059,22.653 208.086,22.502 208.122,22.324 L208.122,22.324 Z M208.602,23.071 C208.602,23.746 208.886,24.084 209.454,24.084 C209.739,24.084 210.05,24.004 210.387,23.844 C210.730961,23.6798677 211.053389,23.4739836 211.347,23.231 C211.64534,22.9863616 211.905829,22.6989137 212.12,22.378 C212.333,22.058 212.458,21.756 212.493,21.471 C212.28,20.689 211.836,20.298 211.16,20.298 C210.556,20.298 209.979,20.583 209.428,21.151 C208.877,21.721 208.601,22.36 208.601,23.071 L208.602,23.071 Z M226.088,23.391 C226.408,23.284 226.844,23.115 227.394,22.884 C227.945,22.654 228.523,22.378 229.127,22.058 C229.727261,21.7404084 230.306158,21.3839844 230.86,20.991 C231.41,20.601 231.828,20.191 232.113,19.765 C232.124018,19.4341242 232.159785,19.104537 232.22,18.779 C232.255,18.583 232.317,18.406 232.406,18.246 C232.495,18.086 232.592,18.006 232.699,18.006 C232.948,18.006 233.072,18.113 233.072,18.326 C233.072,18.788 232.93,19.25 232.646,19.712 C232.646,20.316 232.77,20.92 233.019,21.525 C233.268,22.129 233.677,22.671 234.245,23.151 C234.814,23.631 235.551,24.013 236.458,24.297 C237.364,24.581 238.475,24.723 239.79,24.723 C241.674,24.723 243.38,24.421 244.908,23.817 L245.974,23.391 L245.974,23.817 L244.908,24.244 C244.161,24.528 243.326,24.759 242.402,24.937 C241.478,25.114 240.536,25.203 239.577,25.203 C237.302,25.203 235.525,24.723 234.245,23.763 C232.965,22.804 232.255,21.685 232.113,20.405 C231.694517,20.8187455 231.239313,21.1936193 230.753,21.525 C230.240608,21.8786735 229.706191,22.1993237 229.153,22.485 C228.603,22.769 228.061,23.026 227.528,23.257 C226.995,23.488 226.515,23.675 226.088,23.817 L225.022,24.244 L225.022,23.817 L226.088,23.391 L226.088,23.391 Z M233.178,15.821 C232.859,15.821 232.61,15.731 232.433,15.553 C232.255,15.376 232.166,15.198 232.166,15.02 C232.166,14.736 232.281,14.478 232.513,14.247 C232.743,14.017 233.001,13.901 233.286,13.901 C233.606,13.901 233.846,13.99 234.006,14.167 C234.157856,14.3249492 234.243698,14.5349044 234.246,14.754 C234.246,15.003 234.139,15.242 233.926,15.474 C233.712,15.704 233.463,15.82 233.179,15.82 L233.178,15.821 Z M244.908,24.244 L244.908,23.817 L245.974,23.391 C247.043313,22.9628985 248.048191,22.3887788 248.96,21.685 C249.888872,20.969047 250.729722,20.1456508 251.465,19.232 C251.428717,18.9396205 251.402036,18.6461293 251.385,18.352 C251.368,18.05 251.359,17.722 251.359,17.366 C251.359,15.802 251.457,14.416 251.652,13.208 C251.848,11.999 252.087,10.986 252.372,10.168 C252.656,9.351 252.976,8.738 253.332,8.33 C253.687,7.92 254.007,7.716 254.291,7.716 C254.611,7.716 254.886,7.939 255.117,8.383 C255.348,8.827 255.464,9.493 255.464,10.383 C255.464,11.803 255.162,13.279 254.558,14.807 C253.943651,16.3527012 253.118138,17.8058458 252.105,19.125 C252.461,21.08 253.278,22.529 254.558,23.471 C255.838,24.412 257.383,24.883 259.196,24.883 C260.76,24.883 262.448,24.528 264.261,23.817 L265.327,23.391 L265.327,23.817 L264.261,24.244 C263.410676,24.5740367 262.537345,24.8414171 261.648,25.044 C260.724,25.257 259.8,25.364 258.876,25.364 C258.023,25.364 257.196,25.265 256.396,25.07 C255.623487,24.8862127 254.891773,24.5607052 254.238,24.11 C253.598,23.666 253.048,23.08 252.585,22.351 C252.123,21.622 251.785,20.743 251.572,19.711 C250.803827,20.6222173 249.936471,21.4449643 248.986,22.164 C248.069399,22.861119 247.054319,23.4181998 245.974,23.817 L244.908,24.244 L244.908,24.244 Z M251.944985,17.1 L251.944985,17.873 C251.944394,18.0961175 251.962457,18.3188946 251.999,18.539 C252.945375,17.3188025 253.700368,15.9615703 254.238,14.514 C254.771,13.074 255.038,11.697 255.038,10.382 C255.038,8.889 254.788,8.142 254.291,8.142 C253.793,8.142 253.278,8.88 252.745,10.355 C252.212,11.83 251.944985,14.078 251.944985,17.1 L251.944985,17.1 Z"/>
    <circle cx="23.5" cy="23.5" r="23.5" fill="#FFF" stroke="#E6E6E6"/>
    <path fill="url(#logo-a)" d="M14.522,16.134 L32.983,16.134 C33.506,16.134 33.976,16.324 34.343,16.639 L23.844,24.65 L13.361,16.64 C13.681,16.364 14.078,16.176 14.523,16.135 L14.522,16.135 L14.522,16.134 Z M35.042,17.888 C35.099,21.011 35.064,24.92 35.064,28.071 C35.0669259,28.6250029 34.8490346,29.1573484 34.4585116,29.550311 C34.0679886,29.9432736 33.5370104,30.1644758 32.983,30.1650002 L14.719,30.1650002 C14.1637389,30.1652661 13.6311726,29.9446704 13.2387313,29.5518539 C12.84629,29.1590374 12.6262033,28.6262606 12.6269978,28.071 C12.632,24.903 12.632,21.045 12.649,17.899 L23.396,26.131 C23.646,26.353 24.056,26.353 24.306,26.131 L35.042,17.888 L35.042,17.888 Z"/>
  </g>
</svg>
